<svg xmlns="http://www.w3.org/2000/svg" width="185" height="16" fill="none" viewBox="0 0 185 16">
  <path fill="#EDFAFF" d="M173.754.802V8.45c0 2.591 1.321 3.946 3.57 3.946 2.294 0 3.616-1.355 3.616-3.946V.802h3.551V8.22c0 2.322-.638 4.097-1.901 5.366-1.257 1.276-3.036 1.9-5.285 1.9s-4.028-.624-5.285-1.9c-1.257-1.275-1.901-3.05-1.901-5.366V.802h3.635ZM154.426.507c2.532 0 4.524.67 5.974 2.032 1.469 1.36 2.198 3.182 2.198 5.484s-.729 4.123-2.179 5.465c-1.431 1.341-3.441 2.012-5.993 2.012-2.572 0-4.583-.67-6.059-2.012-1.476-1.361-2.197-3.183-2.197-5.465s.747-4.103 2.217-5.465c1.476-1.36 3.486-2.051 6.039-2.051ZM53.873.5c2.165 0 3.918.5 5.259 1.486 1.36.987 2.146 2.322 2.352 4.038h-3.88c-.432-1.611-1.875-2.598-3.796-2.598-1.302 0-2.333.421-3.113 1.256-.786.816-1.173 1.947-1.173 3.348 0 2.827 1.689 4.544 4.267 4.544 1.96 0 3.383-.96 3.854-2.618h3.88c-.497 3.433-3.28 5.524-7.65 5.524-2.54 0-4.537-.67-6-2.012-1.47-1.328-2.192-3.15-2.192-5.432 0-2.301.722-4.123 2.185-5.484C49.336 1.197 51.333.5 53.873.5Zm62.45.302v14.389h-3.525V.802h3.525Zm-19.386 0c0 6.116 4.112 6.8 4.389 13.666V.802h3.248v14.389H98.11c0-2.894-.973-4.656-1.998-6.385l-.129-.224c-1.121-1.874-2.262-3.762-2.262-7.056v13.658h-3.248V.802h6.464Zm-18.716 0 5.762 13.909v.48h-3.448l-1.018-2.525h-7.824l-.98 2.525h-3.429v-.44L73.065.801h5.156Zm-39.165 0v2.69h-8.7v2.94h7.41v2.67h-7.41v3.4h8.803v2.689h-12.13V.802h12.027Zm-32.592 0c0 2.65.8 4.282 1.727 5.833l.078.132c.026.046.051.085.077.132l.084.131.122.197c.039.066.084.132.123.198l.084.131c.219.355.438.717.644 1.098.168-.309.348-.605.522-.894l.084-.132c.013-.02.026-.046.039-.065l.083-.132c.026-.046.052-.092.084-.131l.084-.132c1.057-1.723 2.05-3.413 2.05-6.366h6.457v14.389h-3.248V1.526c0 3.229-1.134 5.11-2.269 6.944l-.135.224c-1.09 1.762-2.133 3.544-2.133 6.49H7.785c0-2.952-1.044-4.728-2.133-6.49l-.135-.224C4.383 6.63 3.248 4.755 3.248 1.526v13.658H0V.802h6.464Zm132.184 0v6.596c-2.771 0-4.485.947-6.148 1.973l-.219.132-.219.131c-1.805 1.118-3.642 2.243-6.806 2.243h13.392v3.314h-14.101V8.595c6 0 6.664-4.195 13.393-4.478h-13.393V.802h14.101Zm15.778 2.44c-1.393 0-2.469.44-3.281 1.296-.786.855-1.179 2.032-1.179 3.472 0 1.447.393 2.597 1.179 3.452.812.835 1.888 1.256 3.281 1.256 2.758 0 4.376-1.802 4.376-4.708 0-2.926-1.637-4.768-4.376-4.768Zm-78.634-.25h-.432l-.329 1.17-2.326 5.92h5.761l-2.371-5.92-.303-1.17Z"/>
</svg>
