<svg xmlns="http://www.w3.org/2000/svg" width="20" height="19" fill="none" viewBox="0 0 20 19">
  <path fill="#E4E4E7" d="M0 .866C0 .41.35.023.841.023H2.42c.771 0 1.473.457 1.788 1.124h14.41c.911 0 1.577.877 1.332 1.79l-1.44 5.336c-.28 1.123-1.297 1.86-2.419 1.86H5.96l.21 1.019c.07.386.421.667.807.667h10.132c.456 0 .841.386.841.842a.831.831 0 0 1-.841.843H6.977c-1.192 0-2.244-.843-2.454-2.036L2.7 1.954c-.036-.14-.14-.246-.28-.246H.84c-.49 0-.841-.35-.841-.842Zm4.488 15.446c0-.597.315-1.123.841-1.44.49-.315 1.157-.315 1.683 0 .49.317.841.843.841 1.44 0 .632-.35 1.159-.841 1.474-.526.316-1.192.316-1.683 0a1.681 1.681 0 0 1-.841-1.474Zm11.78-1.685c.595 0 1.121.351 1.437.843.315.526.315 1.193 0 1.685-.316.526-.841.842-1.438.842a1.678 1.678 0 0 1-1.472-.842c-.316-.492-.316-1.159 0-1.685.316-.492.841-.843 1.472-.843Z"/>
</svg>
