<svg xmlns="http://www.w3.org/2000/svg" width="19" height="17" fill="none" viewBox="0 0 19 17">
  <path fill="#0958B5" d="M1.25 0h1.406C3.344 0 3.97.406 4.25 1h12.844c.812 0 1.406.781 1.187 1.594L17 7.344C16.75 8.344 15.844 9 14.844 9H5.813L6 9.906a.736.736 0 0 0 .719.594h9.031a.76.76 0 0 1 .75.75.74.74 0 0 1-.75.75H6.719c-1.063 0-2-.75-2.188-1.813L2.906 1.72c-.031-.125-.125-.219-.25-.219H1.25A.722.722 0 0 1 .5.75.74.74 0 0 1 1.25 0Zm3.344 2.5.937 5h9.313a.74.74 0 0 0 .719-.531L16.75 2.5H4.594ZM6 16a1.496 1.496 0 0 1-1.313-.75c-.28-.438-.28-1.031 0-1.5.282-.438.75-.75 1.313-.75.531 0 1 .313 1.281.75.282.469.282 1.063 0 1.5C7 15.719 6.531 16 6 16Zm10.5-1.5c0 .563-.313 1.031-.75 1.313-.469.28-1.063.28-1.5 0a1.496 1.496 0 0 1-.75-1.313c0-.531.281-1 .75-1.281.438-.281 1.031-.281 1.5 0 .438.281.75.75.75 1.281Z"/>
</svg>
