<svg xmlns="http://www.w3.org/2000/svg" width="19" height="18" fill="none" viewBox="0 0 19 18">
  <path fill="currentColor" d="M.505 1.738a.74.74 0 0 1 .75-.75H2.66c.844 0 1.563.625 1.719 1.438l1.156 6.062h9.313a.74.74 0 0 0 .718-.531l1.438-5.406a.782.782 0 0 1 .937-.531.782.782 0 0 1 .532.937l-1.47 5.375c-.25 1-1.155 1.656-2.155 1.656H5.817l.188.907a.736.736 0 0 0 .719.593h9.03a.76.76 0 0 1 .75.75.74.74 0 0 1-.75.75h-9.03c-1.063 0-2-.75-2.188-1.812L2.911 2.707c-.031-.125-.125-.219-.25-.219H1.255a.722.722 0 0 1-.75-.75Zm4 13.75c0-.531.281-1 .75-1.281.437-.281 1.031-.281 1.5 0 .437.281.75.75.75 1.281 0 .563-.313 1.032-.75 1.313-.469.281-1.063.281-1.5 0a1.496 1.496 0 0 1-.75-1.313Zm10.5-1.5c.531 0 1 .313 1.281.75.281.469.281 1.063 0 1.5-.281.469-.75.75-1.281.75a1.496 1.496 0 0 1-1.313-.75c-.28-.437-.28-1.031 0-1.5.282-.437.75-.75 1.313-.75Zm-3.75-12.25v3.219l.719-.719a.684.684 0 0 1 1.03 0 .684.684 0 0 1 0 1.032l-2 2a.684.684 0 0 1-1.03 0l-2-2a.684.684 0 0 1 0-1.032.684.684 0 0 1 1.03 0l.72.719V1.738a.76.76 0 0 1 .75-.75.74.74 0 0 1 .75.75h.03Z"/>
</svg>
