<svg xmlns="http://www.w3.org/2000/svg" width="16" height="16" fill="none" viewBox="0 0 16 16">
  <path fill="#3F3F46" d="M10.219 2.688 12 2l.656-1.75C12.687.094 12.844 0 13 0c.125 0 .281.094.313.25L14 2l1.75.688c.156.03.25.187.25.312 0 .156-.094.313-.25.344L14 4l-.688 1.781c-.03.125-.187.219-.312.219-.156 0-.313-.094-.344-.219L12 4l-1.781-.656C10.094 3.313 10 3.156 10 3c0-.125.094-.281.219-.313Zm-3.813-.376 1.625 3.563L11.594 7.5a.547.547 0 0 1 .312.469.47.47 0 0 1-.312.437L8.03 10.062l-1.625 3.563a.547.547 0 0 1-.468.313.47.47 0 0 1-.438-.313l-1.656-3.563L.28 8.438a.516.516 0 0 1-.28-.47c0-.187.094-.374.281-.468l3.563-1.625L5.5 2.312A.47.47 0 0 1 5.938 2c.187 0 .375.125.468.313ZM12 12l.656-1.75c.031-.156.188-.25.344-.25.125 0 .281.094.313.25L14 12l1.75.688c.156.03.25.187.25.312 0 .156-.094.313-.25.344L14 14l-.688 1.781c-.03.125-.187.219-.312.219-.156 0-.313-.094-.344-.219L12 14l-1.781-.656C10.094 13.313 10 13.156 10 13c0-.125.094-.281.219-.313L12 12Z"/>
</svg>
