<svg xmlns="http://www.w3.org/2000/svg" width="20" height="16" fill="none" viewBox="0 0 20 16">
  <path fill="#E4E4E7" d="M0 5.813c0-.188.031-.375.125-.563L2.563.781C2.813.312 3.313 0 3.875 0h12.219c.562 0 1.062.313 1.312.781l2.438 4.469c.093.156.156.375.156.563C20 6.468 19.437 7 18.781 7H18v8.25a.74.74 0 0 1-.75.75.722.722 0 0 1-.75-.75V7H12v7.75c0 .719-.563 1.25-1.25 1.25h-7.5C2.531 16 2 15.469 2 14.75V7h-.813A1.187 1.187 0 0 1 0 5.812ZM3.5 7v3h7V7h-7Zm12.594-5.5H3.875l-2.188 4h16.594l-2.187-4ZM3.5 14.5h7v-3h-7v3Z"/>
</svg>
